PathFileType	4	(X/Y/Z)	Patient4_TMGait_0pt2_01_right_10.trc.trc
DataRate	CameraRate	NumFrames	NumMarkers	Units	OrigDataRate	OrigDataStartFrame	OrigNumFrames
41.543026706231	41.543026706231	6	33	mm	41.543026706231	53	       141
Frame#	Time	Sacral			L.Shoulder			Chest			R.Shoulder			Neck			R.ASIS			L.ASIS			R.Thigh.Superior			R.Thigh.Lateral			R.Thigh.Inferior			R.Patella			L.Thigh.Superior			L.Thigh.Lateral			L.Thigh.Inferior			L.Patella			L.Shank.Superior			L.Shank.Lateral			L.Shank.Inferior			R.Shank.Superior			R.Shank.Lateral			R.Shank.Inferior			R.Heel			R.Midfoot.Superior			R.Midfoot.Lateral			R.Toe			L.Heel			L.Midfoot.Lateral			L.Midfoot.Superior			L.Toe			L.Elbow			L.Wrist			R.Elbow			R.Wrist			
		X1	Y1	Z1	X2	Y2	Z2	X3	Y3	Z3	X4	Y4	Z4	X5	Y5	Z5	X6	Y6	Z6	X7	Y7	Z7	X8	Y8	Z8	X9	Y9	Z9	X10	Y10	Z10	X11	Y11	Z11	X12	Y12	Z12	X13	Y13	Z13	X14	Y14	Z14	X15	Y15	Z15	X16	Y16	Z16	X17	Y17	Z17	X18	Y18	Z18	X19	Y19	Z19	X20	Y20	Z20	X21	Y21	Z21	X22	Y22	Z22	X23	Y23	Z23	X24	Y24	Z24	X25	Y25	Z25	X26	Y26	Z26	X27	Y27	Z27	X28	Y28	Z28	X29	Y29	Z29	X30	Y30	Z30	X31	Y31	Z31	X32	Y32	Z32	X33	Y33	Z33	

53	22.351714285714	783.232179639046	982.787550635445	594.581177963885	926.763852226279	1410.736902606409	387.095228895021	1046.337431563942	1352.693222601947	540.255179309556	977.120478293385	1426.098348340114	720.113453683575	922.525204242055	1478.644520261652	543.463358177879	1024.723804248550	930.027845318466	693.250867379271	987.377898733592	947.740962238037	421.521149181083	1072.075429193341	731.638837031902	642.937388660078	1003.247842058834	610.585143643145	697.798470881339	1072.461043683408	569.825591216185	605.321018618852	1075.893562274224	473.816322460786	603.993236971416	1077.604618877695	763.947859738849	448.643916656386	1032.371170700844	635.848652956213	368.471314874749	1133.609690339113	573.221492459388	431.471466804828	1147.645729792843	487.336125180243	417.802645248413	1088.507079901506	420.022973585240	400.986953645304	954.012040967159	361.852902393327	351.514524632256	967.270776344548	226.842759952354	389.079166794348	1030.924705067561	385.480018416716	606.211798831424	948.841524343166	288.290680905512	667.188708710349	966.617884581243	195.446096842424	594.679032062438	806.967834747229	43.493480578460	565.493620224579	980.610598276891	96.160619094547	596.153485325263	892.411095858363	37.187686552376	637.430016425094	1100.526920862411	42.306028679315	620.077572982482	795.361848130556	118.391036575825	425.184911949219	854.381218825856	103.140456278007	335.354128862360	955.742055296280	132.165180059406	353.866071722936	1053.738323891769	49.120187715349	300.886693425054	873.496229085427	1051.915854962945	297.834204512809	925.450490483609	798.452254882055	311.586678120824	1078.583131861095	1095.956382283466	852.411237897308	1288.887774074299	942.514752855468	844.396913770117	
54	22.375785714286	781.774064736959	983.075253469759	598.585551939914	921.618589636967	1410.627181090672	388.641125061504	1044.651342857691	1352.400909383498	538.976565238256	979.969697617569	1426.341466361125	720.289692034076	921.253804200246	1478.623328911149	544.819607878072	1024.562864820387	929.584478679653	692.852349695253	983.163369197820	948.592562458210	421.771896528267	1070.357853476786	730.875820908523	642.215884201286	1001.890597052325	610.052908007343	697.772804075480	1069.988317946377	569.201756098272	604.464293636508	1073.099066143924	473.113288771145	603.158359207102	1075.564511083589	766.962608228256	449.463008064116	1032.710585391854	638.581164882593	368.779304762431	1134.368880982361	577.441992785708	432.148322433815	1151.166203293140	493.169779053515	418.190557262711	1095.999385556320	424.303523202914	400.496410195421	966.277225033945	358.418072565108	349.926398190806	987.892311885401	224.483246765537	386.889264318208	1027.597057794174	384.954137946354	605.692504041103	945.506705192596	288.079801789861	667.134314128688	962.451975807438	195.194334507885	594.446098494802	802.188884529631	43.620385549334	565.547374203321	975.890697301279	96.121421208339	596.118222227260	887.643175475764	37.213573607214	637.445293099731	1095.749837562335	42.037348928053	620.044881587732	823.540981436576	106.187864461024	421.959987336816	883.756504983774	94.399782748879	332.374805489534	983.016807718665	128.883957212389	351.290012727913	1085.564612742658	51.660760482850	298.801803965983	854.682636003761	1054.125062040756	303.212690779123	885.410920386503	796.241490448518	318.993716546089	1097.501590056399	1101.945825502108	850.631964245141	1320.023794912245	968.110252184460	835.002115610187	
55	22.399857142857	780.512876777611	983.950558159456	602.226964600788	916.794934309590	1411.069368571383	390.090087538048	1043.166001090653	1352.543953762197	537.544790979032	982.999687202846	1427.073358349347	720.158297216846	920.207537817859	1479.038690681224	546.035708638931	1024.369041226566	929.522038524776	692.306322483293	979.209769792420	949.838856817809	421.848512318744	1068.147802564561	730.319146969307	641.633974636285	999.615904552143	609.936559926164	697.932183705437	1066.655794121132	568.767188026532	604.003733742729	1069.239007233108	472.741383245132	602.809779071763	1072.781873107816	769.608961026620	449.822050370490	1031.493528328679	641.282987759320	368.530103318907	1133.319858810615	581.186052185419	432.067737009330	1152.632628092037	498.860046670019	417.948235745191	1101.847630845450	428.644510188455	399.502335796930	977.859839405557	354.470282462814	347.514904883768	1008.400420097679	222.182626718695	384.214238167522	1023.442037389396	384.787202353011	605.571865632909	941.464284618787	288.065125280309	667.391317961843	957.927916281888	195.171783728309	594.462390143273	797.389478108254	43.774191821104	565.614030790478	971.164875483070	96.099562844205	596.169188362988	882.862276444912	37.230736400396	637.467441651375	1090.951259983473	41.775798315377	620.029724809555	852.480939430692	93.863726510400	417.980171986796	914.179522925111	85.305482667750	328.964141813000	1011.007595889428	125.542563804790	348.435744540683	1118.296026514335	54.390898406173	297.265315049727	836.314103744610	1057.826994581952	307.871504003304	848.493932363516	797.605184034317	326.110327185515	1115.626196648643	1109.016132178953	848.106484606609	1348.331299101055	995.949225158878	824.151918799429	
56	22.423928571429	779.447713261129	985.302372711600	605.457732060232	912.345351829132	1411.982046959407	391.422737111072	1041.872408382979	1353.044227414281	536.000466603165	986.109975777520	1428.198339169772	719.739910976324	919.370779376552	1479.816685113150	547.096307961297	1024.127962954879	929.784349651074	691.649438617383	975.548417702185	951.383470906328	421.773720941521	1065.521055412286	729.958242532577	641.213146488066	996.532929686478	610.190046268640	698.275198468497	1062.596346223499	568.503253984865	603.944006757624	1064.473286207877	472.662710107382	602.943124024585	1069.397630320672	771.826892458980	449.680272027824	1028.845943351505	643.810529822702	367.724931674154	1130.716165021018	584.368872112703	431.173893003195	1152.204181716898	504.222448954553	417.063285333943	1106.042174496859	432.910742810945	398.055220020907	988.553966815442	350.304561097169	344.436497234182	1028.178664992716	220.224217497920	381.229978203815	1018.597001951131	384.938801450272	605.837687917238	936.802475703845	288.223890991874	667.920682033487	953.101273286201	195.351288303696	594.704384728791	792.572168189262	43.952087580473	565.690824006839	966.434212655338	96.092093492376	596.296101566150	878.068181130394	37.240466460745	637.495235518861	1086.134216520710	41.524069717370	620.031956184844	881.239805243051	82.261688012912	413.567401580685	944.611504243884	76.529130204884	325.397563044796	1038.784759896433	122.489387311099	345.492010213322	1150.712384210820	57.309819201248	296.381933486467	818.562265293127	1062.789057079749	311.856894533153	815.219365983317	801.819414370707	332.866642399908	1132.755455766762	1116.879772138075	844.859994208527	1373.378147299535	1025.367616871800	812.010879663735	
57	22.448000000000	778.566760492458	986.988858927267	608.239629299050	908.293257961700	1413.250038277290	392.609166225239	1040.746898578155	1353.803274903510	534.370894981636	989.192744372179	1429.596289069762	719.053676675458	918.710797624428	1480.860146386082	547.971795037974	1023.835209964860	930.293037696769	690.898323002264	972.190472663965	953.114974925319	421.559550068419	1062.572102251603	729.764356567688	640.928677689485	992.795222363168	610.744257813605	698.761220494377	1057.965117548448	568.377248450737	604.227660930958	1058.988104531965	472.823806739221	603.483804576901	1065.582447765957	773.592577604418	449.020313701687	1024.964636947507	646.049778032475	366.409696450521	1126.867316290333	586.954783010914	429.477276064834	1150.103477033995	509.098913026102	415.586087301871	1108.635617958593	436.966671831806	396.239860556652	998.156621119305	346.191139930226	340.880723692653	1046.622844542280	218.804919621443	378.116381813426	1013.221119315508	385.349200485997	606.424866443889	931.640743049802	288.522337379532	668.649133569414	948.039590098276	195.692508510859	595.120943252887	787.740259729521	44.147032636686	565.773419713647	961.697631793430	96.095320118454	596.479476455841	873.261272081404	37.244478238893	637.526901198219	1081.302179971340	41.287793405089	620.048743034946	908.843234414811	72.034094547326	409.020266135560	973.993708187601	68.612326959382	321.920981998535	1065.406102233987	119.990462118282	342.635828117149	1181.639375385988	60.396632392181	296.205715594526	801.667005792000	1068.688624631463	315.247690485029	785.917717260670	808.057184212658	339.209439414529	1148.705204563861	1125.208868189950	840.927420394952	1394.843209027084	1055.614458996940	798.776774169563	
58	22.472071428571	777.847272395833	988.857739156786	610.545730621234	904.634299716592	1414.740483141819	393.611227236299	1039.755823795324	1354.715552460066	532.667476491547	992.144742143258	1431.136809766475	718.115636571878	918.183436066383	1482.060965235253	548.624368370512	1023.496799669432	930.959606945841	690.050615056826	969.130009899248	954.918087225884	421.207147367012	1059.404989746766	729.695341274928	640.718493483698	988.583220519421	611.516557749987	699.320944099580	1052.925080354574	568.347445475886	604.750185470893	1052.978995532047	473.161519876630	604.306006887857	1061.523941993652	774.917784849095	447.860718484442	1020.107655323832	647.925501176124	364.676985747485	1122.112167594403	588.953660737562	427.064719027444	1146.597455132195	513.363234733120	413.627447697427	1109.735825743923	440.680684394832	394.169210802867	1006.477133352808	342.347377671767	337.058089837780	1063.182403297435	218.013120420879	375.045884603784	1007.478445067466	385.946240720943	607.230622739896	926.116183307127	288.920374478286	669.485348633282	942.813967633551	196.147004713726	595.644730920088	782.896813758476	44.348970697980	565.857287016217	956.951912375059	96.104974201628	596.695046499124	868.442205290795	37.244289046379	637.560930868681	1076.458621213361	41.073891524211	620.075507494111	934.356654711211	63.586252817920	404.593032887061	1001.320447544642	61.922487419078	318.731264686271	1089.979870248886	118.204063771523	340.021662190328	1210.025507694972	63.607626986655	296.732449322904	785.915995678804	1075.137900146795	318.134908194732	760.744370877938	815.469339295521	345.099636651027	1163.314294160529	1133.658145305460	836.355843174975	1412.535509694499	1085.900503040098	784.674969678388	
